<svg id="그룹_32847" data-name="그룹 32847" xmlns="http://www.w3.org/2000/svg" xmlns:xlink="http://www.w3.org/1999/xlink" width="200" height="68" viewBox="0 0 200 68">
  <defs>
    <linearGradient id="linear-gradient" x1="1" x2="0" y2="1" gradientUnits="objectBoundingBox">
      <stop offset="0" stop-color="#ffd028"/>
      <stop offset="1" stop-color="#fea01c"/>
    </linearGradient>
  </defs>
  <rect id="사각형_19421" data-name="사각형 19421" width="200" height="68" fill="none"/>
  <g id="logo-mobile_web" data-name="logo-mobile web" transform="translate(4 16)">
    <rect id="사각형_4806" data-name="사각형 4806" width="191" height="34" fill="rgba(255,255,255,0)" opacity="0"/>
    <g id="그룹_15425" data-name="그룹 15425" transform="translate(69.363 4.099)">
      <path id="패스_30" data-name="패스 30" d="M61.713,17.846A5.263,5.263,0,0,0,60.7,16.188a5.207,5.207,0,0,0-3.516-1.68v-.287a4.014,4.014,0,0,0,1.526-.565,4.824,4.824,0,0,0,1.237-1.083A5.093,5.093,0,0,0,61.061,9.4a5.964,5.964,0,0,0-.454-2.367,4.913,4.913,0,0,0-1.316-1.77,5.937,5.937,0,0,0-2.078-1.117,9.271,9.271,0,0,0-2.8-.4H45.039V26.372h9.632a9.648,9.648,0,0,0,3.073-.464,6.746,6.746,0,0,0,2.345-1.282A5.677,5.677,0,0,0,61.57,22.58a6.772,6.772,0,0,0,.509-2.688,5.406,5.406,0,0,0-.366-2.046M49.528,7.375h3.749a3.659,3.659,0,0,1,2.487.764,2.659,2.659,0,0,1,.873,2.123,2.508,2.508,0,0,1-.95,2.123,4.444,4.444,0,0,1-2.786.741H49.528Zm6.955,14.541a4.56,4.56,0,0,1-2.964.83l-3.991.011V16.32h3.892a4.956,4.956,0,0,1,3.041.8A2.792,2.792,0,0,1,57.5,19.483a2.922,2.922,0,0,1-1.017,2.433" transform="translate(-45.039 -2.057)" fill="#fff"/>
      <path id="패스_31" data-name="패스 31" d="M63.132,4.022a2.136,2.136,0,0,0-.518-.73,2.275,2.275,0,0,0-.8-.475,3.459,3.459,0,0,0-1.051-.165,3.393,3.393,0,0,0-1.051.165,2.293,2.293,0,0,0-.807.475,2.14,2.14,0,0,0-.52.73,2.493,2.493,0,0,0-.177.941,2.383,2.383,0,0,0,.177.918,2.14,2.14,0,0,0,.52.73,2.5,2.5,0,0,0,.807.486,3.068,3.068,0,0,0,1.051.165,2.85,2.85,0,0,0,1.051-.176,2.275,2.275,0,0,0,.8-.475,2.136,2.136,0,0,0,.518-.73,2.209,2.209,0,0,0,.188-.918,2.086,2.086,0,0,0-.188-.941M58.6,26.966h4.323V9.672H58.6Z" transform="translate(-37.889 -2.652)" fill="#fff"/>
      <path id="패스_32" data-name="패스 32" d="M70.129,12.417v7.774a2.355,2.355,0,0,0,.509,1.658,2.115,2.115,0,0,0,1.614.531c.287,0,.52,0,.7-.012s.375-.032.586-.043V25.8c-.267.056-.6.1-.974.145a11.857,11.857,0,0,1-3.749-.2,4.221,4.221,0,0,1-1.725-.841,3.227,3.227,0,0,1-.974-1.47,6.771,6.771,0,0,1-.309-2.157V12.417H63.251V8.824h2.555V4.544h4.323v4.28h3.406v3.593Z" transform="translate(-35.154 -1.625)" fill="#fff"/>
      <path id="패스_33" data-name="패스 33" d="M106.193,7.21V24.492H102V21.717h-.265a4.919,4.919,0,0,1-1.748,2.345,5.175,5.175,0,0,1-3.041.807,6.325,6.325,0,0,1-2.388-.43,4.877,4.877,0,0,1-1.8-1.25,5.513,5.513,0,0,1-1.139-2.013,8.262,8.262,0,0,1-.41-2.7V7.21h4.324v10.1q0,3.6,3.019,3.6a3.067,3.067,0,0,0,2.465-1,4.058,4.058,0,0,0,.852-2.731V7.21Z" transform="translate(-19.979 -0.178)" fill="#fff"/>
      <path id="패스_34" data-name="패스 34" d="M117.707,19.3a5.1,5.1,0,0,1-2.012,4.147,6.943,6.943,0,0,1-2.279,1.16,10.163,10.163,0,0,1-2.941.4,10.724,10.724,0,0,1-2.908-.343,6.579,6.579,0,0,1-2.212-1.006,4.852,4.852,0,0,1-1.46-1.615,5.427,5.427,0,0,1-.653-2.222h4.224a2.241,2.241,0,0,0,1.017,1.372,3.833,3.833,0,0,0,2.08.475,4.069,4.069,0,0,0,1.149-.133,2.708,2.708,0,0,0,.907-.376,1.768,1.768,0,0,0,.575-.575,1.441,1.441,0,0,0,.21-.762,1.273,1.273,0,0,0-.486-1.04,4,4,0,0,0-1.581-.653l-2.974-.707a6.908,6.908,0,0,1-3.55-1.77,4.448,4.448,0,0,1-1.173-3.229,4.891,4.891,0,0,1,1.881-3.959,6.557,6.557,0,0,1,2.155-1.106,9.438,9.438,0,0,1,2.786-.386,8,8,0,0,1,4.9,1.327,4.924,4.924,0,0,1,1.947,3.814h-3.991a1.974,1.974,0,0,0-.9-1.327,4.222,4.222,0,0,0-3-.342,2.708,2.708,0,0,0-.862.376,1.857,1.857,0,0,0-.565.574,1.506,1.506,0,0,0-.2.753,1.3,1.3,0,0,0,.542,1.051,4.4,4.4,0,0,0,1.671.663l3.084.707a11.253,11.253,0,0,1,2.057.7,4.878,4.878,0,0,1,1.438.984,3.864,3.864,0,0,1,.841,1.327,5.4,5.4,0,0,1,.276,1.725" transform="translate(-13.446 -0.315)" fill="#fff"/>
      <path id="패스_35" data-name="패스 35" d="M128.68,10.362a4.889,4.889,0,0,0-1.316-1.847,5.78,5.78,0,0,0-2.134-1.149,9.141,9.141,0,0,0-2.887-.4,10.542,10.542,0,0,0-2.82.353,6.869,6.869,0,0,0-2.211,1.04,5.459,5.459,0,0,0-1.493,1.648,5.181,5.181,0,0,0-.663,2.155h3.982a2.143,2.143,0,0,1,1.027-1.194,4.006,4.006,0,0,1,1.924-.4,3.133,3.133,0,0,1,2.067.586,2.02,2.02,0,0,1,.7,1.669v1.405l-3.959.253A8.087,8.087,0,0,0,116.185,16a4.44,4.44,0,0,0-1.637,3.693,5.725,5.725,0,0,0,.387,2.146,4.734,4.734,0,0,0,2.808,2.686,6,6,0,0,0,2.168.366h.011a5.98,5.98,0,0,0,2.853-.663,4.456,4.456,0,0,0,1.9-1.858h.265v2.256h4.192v-11.8a6.461,6.461,0,0,0-.454-2.465m-3.826,7.995a2.952,2.952,0,0,1-.265,1.228,3.1,3.1,0,0,1-.741.983,3.782,3.782,0,0,1-1.106.665,4.3,4.3,0,0,1-1.393.231h-.022a2.877,2.877,0,0,1-1.836-.552,1.813,1.813,0,0,1-.719-1.515c0-1.26.918-1.958,2.765-2.09l3.317-.221Z" transform="translate(-7.314 -0.311)" fill="#fff"/>
      <path id="패스_36" data-name="패스 36" d="M97.242,12.795V24.659H92.731V14q0-3.069-2.865-3.073a3.423,3.423,0,0,0-1.237.231,2.8,2.8,0,0,0-1.56,1.648,3.841,3.841,0,0,0-.21,1.271V24.659H82.513V13.812a2.862,2.862,0,0,0-.741-2.134,2.831,2.831,0,0,0-2.078-.751,3.064,3.064,0,0,0-1.217.255,2.95,2.95,0,0,0-.95.685,3.107,3.107,0,0,0-.631,1.051,3.707,3.707,0,0,0-.221,1.338v10.4H72.164L72.153,7.366h4.368v2.82h.287a4.677,4.677,0,0,1,.719-1.328,4.888,4.888,0,0,1,1.061-1.017,5.072,5.072,0,0,1,1.359-.629,5.847,5.847,0,0,1,1.594-.222,5.091,5.091,0,0,1,3.007.841,4.471,4.471,0,0,1,1.714,2.356h.287a4.639,4.639,0,0,1,.8-1.305,5.2,5.2,0,0,1,1.173-1.018,5.454,5.454,0,0,1,1.47-.64A6.55,6.55,0,0,1,94,7.4,4.878,4.878,0,0,1,95.748,8.56a5.3,5.3,0,0,1,1.106,1.825,7.151,7.151,0,0,1,.387,2.41" transform="translate(-30.323 -0.3)" fill="#fff"/>
      <path id="패스_49" data-name="패스 49" d="M61.713,17.846A5.263,5.263,0,0,0,60.7,16.188a5.207,5.207,0,0,0-3.516-1.68v-.287a4.014,4.014,0,0,0,1.526-.565,4.824,4.824,0,0,0,1.237-1.083A5.093,5.093,0,0,0,61.061,9.4a5.964,5.964,0,0,0-.454-2.367,4.913,4.913,0,0,0-1.316-1.77,5.937,5.937,0,0,0-2.078-1.117,9.271,9.271,0,0,0-2.8-.4H45.039V26.372h9.632a9.648,9.648,0,0,0,3.073-.464,6.746,6.746,0,0,0,2.345-1.282A5.677,5.677,0,0,0,61.57,22.58a6.772,6.772,0,0,0,.509-2.688,5.406,5.406,0,0,0-.366-2.046M49.528,7.375h3.749a3.659,3.659,0,0,1,2.487.764,2.659,2.659,0,0,1,.873,2.123,2.508,2.508,0,0,1-.95,2.123,4.444,4.444,0,0,1-2.786.741H49.528Zm6.955,14.541a4.56,4.56,0,0,1-2.964.83l-3.991.011V16.32h3.892a4.956,4.956,0,0,1,3.041.8A2.792,2.792,0,0,1,57.5,19.483a2.922,2.922,0,0,1-1.017,2.433" transform="translate(-45.039 -2.057)" fill="#fff"/>
      <rect id="사각형_640" data-name="사각형 640" width="4.323" height="17.295" transform="translate(20.71 7.021)" fill="#fff"/>
      <path id="패스_50" data-name="패스 50" d="M63.132,4.024a2.075,2.075,0,0,1,.188.94,2.2,2.2,0,0,1-.188.918,2.161,2.161,0,0,1-.52.73,2.225,2.225,0,0,1-.8.475,2.873,2.873,0,0,1-1.051.177A3.113,3.113,0,0,1,59.715,7.1a2.5,2.5,0,0,1-.807-.486,2.162,2.162,0,0,1-.52-.73,2.371,2.371,0,0,1-.176-.918,2.478,2.478,0,0,1,.176-.94,2.162,2.162,0,0,1,.52-.73,2.3,2.3,0,0,1,.807-.475,3.357,3.357,0,0,1,1.051-.167,3.4,3.4,0,0,1,1.051.167,2.225,2.225,0,0,1,.8.475,2.161,2.161,0,0,1,.52.73" transform="translate(-37.889 -2.652)" fill="#fff"/>
      <path id="패스_51" data-name="패스 51" d="M70.129,8.824h3.406v3.593H70.129v7.774a2.355,2.355,0,0,0,.509,1.658,2.109,2.109,0,0,0,1.614.531c.287,0,.52,0,.7-.011s.375-.034.586-.045V25.8c-.267.054-.6.1-.974.143a10.682,10.682,0,0,1-1.194.066,10.962,10.962,0,0,1-2.555-.265,4.2,4.2,0,0,1-1.725-.841,3.219,3.219,0,0,1-.974-1.47,6.771,6.771,0,0,1-.309-2.157V12.417H63.251V8.824h2.555V4.544h4.323Z" transform="translate(-35.154 -1.625)" fill="#fff"/>
      <path id="패스_52" data-name="패스 52" d="M96.855,10.384a7.158,7.158,0,0,1,.387,2.41V24.659H92.731V14c0-2.046-.952-3.075-2.865-3.075a3.392,3.392,0,0,0-1.237.233,2.79,2.79,0,0,0-1.56,1.648,3.835,3.835,0,0,0-.21,1.271V24.659H82.513V13.812a2.86,2.86,0,0,0-.741-2.134,2.835,2.835,0,0,0-2.078-.753,3.09,3.09,0,0,0-1.217.255,2.973,2.973,0,0,0-.95.685,3.107,3.107,0,0,0-.631,1.051,3.721,3.721,0,0,0-.221,1.339v10.4H72.164L72.153,7.364h4.368v2.82h.287a4.652,4.652,0,0,1,.719-1.327,4.852,4.852,0,0,1,1.061-1.017,5.029,5.029,0,0,1,1.359-.631,5.9,5.9,0,0,1,1.592-.221,5.081,5.081,0,0,1,3.008.839,4.476,4.476,0,0,1,1.714,2.356h.287a4.661,4.661,0,0,1,.8-1.305,5.117,5.117,0,0,1,1.173-1.017,5.458,5.458,0,0,1,1.47-.642A6.562,6.562,0,0,1,94,7.4a4.894,4.894,0,0,1,1.746,1.16,5.318,5.318,0,0,1,1.106,1.825" transform="translate(-30.323 -0.3)" fill="#fff"/>
      <path id="패스_53" data-name="패스 53" d="M101.869,7.21h4.323V24.492H102V21.717h-.265a4.916,4.916,0,0,1-1.746,2.345,5.181,5.181,0,0,1-3.041.807,6.328,6.328,0,0,1-2.39-.43,4.89,4.89,0,0,1-1.8-1.25,5.513,5.513,0,0,1-1.139-2.013,8.3,8.3,0,0,1-.409-2.7V7.21h4.323v10.1q0,3.6,3.019,3.6a3.065,3.065,0,0,0,2.465-1,4.05,4.05,0,0,0,.852-2.731Z" transform="translate(-19.978 -0.178)" fill="#fff"/>
      <path id="패스_54" data-name="패스 54" d="M117.431,17.575a5.41,5.41,0,0,1,.276,1.725,5.1,5.1,0,0,1-2.012,4.147,6.928,6.928,0,0,1-2.279,1.16,10.058,10.058,0,0,1-2.941.4,10.724,10.724,0,0,1-2.908-.343,6.593,6.593,0,0,1-2.212-1.006,4.878,4.878,0,0,1-1.46-1.614,5.465,5.465,0,0,1-.653-2.223h4.224a2.238,2.238,0,0,0,1.018,1.372,3.811,3.811,0,0,0,2.078.475,4.086,4.086,0,0,0,1.151-.133,2.713,2.713,0,0,0,.906-.376,1.768,1.768,0,0,0,.575-.575,1.441,1.441,0,0,0,.21-.762,1.269,1.269,0,0,0-.486-1.04,3.988,3.988,0,0,0-1.581-.653l-2.974-.707a6.908,6.908,0,0,1-3.55-1.77,4.446,4.446,0,0,1-1.171-3.229,4.884,4.884,0,0,1,1.879-3.959,6.554,6.554,0,0,1,2.155-1.1,9.392,9.392,0,0,1,2.788-.387,8,8,0,0,1,4.9,1.327,4.923,4.923,0,0,1,1.945,3.814h-3.991a1.974,1.974,0,0,0-.9-1.327,4.222,4.222,0,0,0-3-.342,2.708,2.708,0,0,0-.862.376,1.879,1.879,0,0,0-.565.575,1.5,1.5,0,0,0-.2.751,1.294,1.294,0,0,0,.543,1.051,4.382,4.382,0,0,0,1.669.663l3.084.707a11.386,11.386,0,0,1,2.058.7,4.9,4.9,0,0,1,1.436.984,3.864,3.864,0,0,1,.841,1.327" transform="translate(-13.446 -0.315)" fill="#fff"/>
      <path id="패스_55" data-name="패스 55" d="M128.68,10.362a4.889,4.889,0,0,0-1.316-1.847,5.78,5.78,0,0,0-2.134-1.149,9.141,9.141,0,0,0-2.887-.4,10.542,10.542,0,0,0-2.82.353,6.869,6.869,0,0,0-2.211,1.04,5.459,5.459,0,0,0-1.493,1.648,5.181,5.181,0,0,0-.663,2.155h3.982a2.143,2.143,0,0,1,1.027-1.194,4.006,4.006,0,0,1,1.924-.4,3.133,3.133,0,0,1,2.067.586,2.02,2.02,0,0,1,.7,1.669v1.405l-3.959.253A8.087,8.087,0,0,0,116.185,16a4.44,4.44,0,0,0-1.637,3.693,5.725,5.725,0,0,0,.387,2.146,4.734,4.734,0,0,0,2.808,2.686,6,6,0,0,0,2.168.366h.011a5.98,5.98,0,0,0,2.853-.663,4.456,4.456,0,0,0,1.9-1.858h.265v2.256h4.192v-11.8a6.461,6.461,0,0,0-.454-2.465m-3.826,7.995a2.952,2.952,0,0,1-.265,1.228,3.1,3.1,0,0,1-.741.983,3.782,3.782,0,0,1-1.106.665,4.3,4.3,0,0,1-1.393.231h-.022a2.877,2.877,0,0,1-1.836-.552,1.813,1.813,0,0,1-.719-1.515c0-1.26.918-1.958,2.765-2.09l3.317-.221Z" transform="translate(-7.314 -0.311)" fill="#fff"/>
    </g>
    <g id="그룹_15424" data-name="그룹 15424" transform="translate(0 0.007)">
      <path id="패스_37" data-name="패스 37" d="M47.624.032v3.55c-1.571.122-3.206.221-4.843.387-7.132.751-13.479,3.66-19.672,7.043-5.252,2.876-10.46,5.893-16.465,7.021-2.123.4-4.291.575-6.645.873V15.269c1.537-.143,2.688-.319,4.036-.518,1.526-.222,2.786-.41,3.76-.642.73-.167,1.149-.3,1.149-.3l-.94-.276L.022,11.278V7.541l14.586,3.737,4.445-2.266L.022,3.814V0L23.828,6.39A48.675,48.675,0,0,1,47.624.032" fill="#f2c941"/>
      <path id="패스_38" data-name="패스 38" d="M47.594,4.759V8.453C36.67,8.342,28.044,14.622,18.679,18.9A44.823,44.823,0,0,1,2.512,23.314c-.785.043-1.569.011-2.476.011V19.743a41.3,41.3,0,0,0,17.8-4.579c4.721-2.3,9.377-4.743,14.154-6.921a35.763,35.763,0,0,1,15.6-3.484" transform="translate(0.02 2.583)" fill="#f2c941"/>
      <path id="패스_39" data-name="패스 39" d="M40.767,9.558v3.593c-9.144-.077-16.2,5.242-24.017,9.167l-4.014-2.211C22,15.751,29.975,9.237,40.767,9.558" transform="translate(6.913 5.182)" fill="#f2c941"/>
      <path id="패스_40" data-name="패스 40" d="M36.3,14.373v3.582c-5.662,0-10.537,2.3-15.382,5.429V19.04c4.667-2.854,9.621-4.834,15.382-4.667" transform="translate(11.355 7.796)" fill="#f2c941"/>
      <path id="패스_41" data-name="패스 41" d="M15.439,17.8v3.815c-2.731.653-5.363,1.293-7.674,1.635-2.465.366-4.954.531-7.729.7v-3.7c2.863-.177,5.241-.376,7.52-.719S12.52,18.5,15.439,17.8" transform="translate(0.02 9.663)" fill="#f2c941"/>
      <path id="패스_42" data-name="패스 42" d="M35.362,19.337v3.9H22.713c4.158-2.422,8.016-3.936,12.649-3.9" transform="translate(12.329 10.496)" fill="#f2c941"/>
      <path id="패스_43" data-name="패스 43" d="M15.439,17.8v3.815c-2.731.653-5.363,1.293-7.674,1.635-2.465.366-4.954.531-7.729.7v-3.7c2.863-.177,5.241-.376,7.52-.719S12.52,18.5,15.439,17.8" transform="translate(0.02 9.663)" fill="#f2c941"/>
      <path id="패스_44" data-name="패스 44" d="M47.594,4.759V8.453C36.67,8.342,28.044,14.622,18.679,18.9A44.823,44.823,0,0,1,2.512,23.314c-.785.043-1.569.011-2.476.011V19.743a41.3,41.3,0,0,0,17.8-4.579c4.721-2.3,9.377-4.743,14.154-6.921a35.763,35.763,0,0,1,15.6-3.484" transform="translate(0.02 2.583)" fill="#f2c941"/>
      <path id="패스_45" data-name="패스 45" d="M47.624.032v3.55c-1.571.122-3.206.221-4.843.387-7.132.751-13.479,3.66-19.672,7.043-5.252,2.876-10.46,5.893-16.465,7.021-2.123.4-4.291.575-6.645.873V15.269c1.537-.143,2.688-.319,4.036-.518,1.526-.222,2.786-.41,3.76-.642.73-.167,1.149-.3,1.149-.3l-.94-.276L.022,11.278V7.541l14.586,3.737,4.445-2.266L.022,3.814V0L23.828,6.39A48.675,48.675,0,0,1,47.624.032" fill="#f2c941"/>
      <path id="패스_46" data-name="패스 46" d="M36.3,14.373v3.582c-5.662,0-10.537,2.3-15.382,5.429V19.04c4.667-2.854,9.621-4.834,15.382-4.667" transform="translate(11.355 7.796)" fill="#f2c941"/>
      <path id="패스_47" data-name="패스 47" d="M40.767,9.558v3.593c-9.144-.077-16.2,5.242-24.017,9.167l-4.014-2.211C22,15.751,29.975,9.237,40.767,9.558" transform="translate(6.913 5.182)" fill="#f2c941"/>
      <path id="패스_48" data-name="패스 48" d="M35.362,19.337v3.9H22.713c4.158-2.422,8.016-3.936,12.649-3.9" transform="translate(12.329 10.496)" fill="#f2c941"/>
      <path id="패스_56" data-name="패스 56" d="M7.556,19.528c2.266-.342,4.965-1.029,7.884-1.725v3.815c-2.731.651-5.363,1.293-7.674,1.635-2.465.366-4.954.531-7.729.7v-3.7c2.865-.177,5.242-.376,7.52-.719" transform="translate(0.02 9.663)" fill="#fdde6d"/>
      <path id="패스_57" data-name="패스 57" d="M47.594,8.453C36.67,8.342,28.044,14.622,18.679,18.9A44.823,44.823,0,0,1,2.512,23.314c-.785.043-1.569.011-2.476.011V19.743a41.3,41.3,0,0,0,17.8-4.579c4.721-2.3,9.377-4.743,14.154-6.921a35.785,35.785,0,0,1,15.6-3.484Z" transform="translate(0.02 2.583)" fill="#fed028"/>
      <path id="패스_58" data-name="패스 58" d="M6.645,18.035c-2.123.4-4.291.575-6.645.873V15.271c1.537-.143,2.686-.321,4.036-.52,1.526-.221,2.786-.409,3.758-.64.73-.167,1.152-.3,1.152-.3l-.941-.276L.022,11.279V7.541l14.584,3.738,4.446-2.266L.022,3.815V0L23.828,6.392A48.659,48.659,0,0,1,47.624.034V3.582c-1.569.122-3.206.222-4.844.387-7.131.753-13.478,3.661-19.671,7.044-5.25,2.874-10.459,5.893-16.465,7.021" fill="url(#linear-gradient)"/>
      <path id="패스_59" data-name="패스 59" d="M36.3,17.956c-5.662,0-10.537,2.3-15.382,5.429V19.039c4.667-2.853,9.621-4.832,15.382-4.665Z" transform="translate(11.355 7.796)" fill="#fdda5b"/>
      <path id="패스_60" data-name="패스 60" d="M40.767,13.151c-9.144-.077-16.2,5.241-24.017,9.167l-4.014-2.212C22,15.749,29.975,9.237,40.767,9.558Z" transform="translate(6.913 5.182)" fill="#fce491"/>
      <path id="패스_61" data-name="패스 61" d="M35.362,19.337v3.9H22.713c4.158-2.422,8.016-3.936,12.649-3.9" transform="translate(12.329 10.496)" fill="#fed028"/>
    </g>
  </g>
</svg>
